<svg xmlns="http://www.w3.org/2000/svg"
shape-rendering="geometricPrecision"
width="4000" height="4000" viewBox="0 0 481 481">
  <metadata>null</metadata>

<path d="
M 82.352 123.037
C 82.424 122.878 82.496 122.72 82.568 122.561
C 90.291 114.817 97.85 107.215 106.495 100.456
C 129.719 82.3 156.774 68.868 184.951 60.322
C 193.589 57.702 202.385 55.614 211.181 53.595
C 213.526 53.057 215.892 52.519 218.271 52.157
C 219.02 52.043 220.242 51.54 220.95 51.866
C 220.443 52.949 219.109 53.777 218.244 54.588
C 216.57 56.158 214.955 57.786 213.327 59.403
C 206.909 65.781 200.71 72.428 194.156 78.662
C 171.806 102.752 147.066 124.419 125.625 149.379
C 118.384 157.808 111.987 166.846 105.232 175.654
C 102.719 178.93 100.534 182.451 98.323 185.93
C 97.97 186.484 96.688 189.33 95.916 188.743
C 93.35 182.861 92.04 176.348 90.486 170.144
C 86.593 154.606 84.437 138.886 82.352 123.037 Z"
opacity="1" fill="rgb(42,74,127)" fill-rule="evenodd" />
<path d="
M 84.293 390.333
C 88.746 390.538 93.228 390.343 97.682 390.331
C 98.431 397.891 97.731 405.896 97.75 413.502
C 97.778 424.186 98.347 435.038 97.771 445.704
C 101.494 446.466 106.187 445.751 110.007 445.751
C 117.716 445.751 125.493 446.053 133.193 445.757
C 133.436 448.791 133.17 451.95 133.187 454.999
C 133.19 455.508 133.518 457.742 133.077 457.938
C 124.071 457.525 115.014 457.78 106 457.796
C 98.842 457.808 91.585 457.482 84.442 457.934
C 83.771 457.515 84.198 454.812 84.197 454.002
C 84.191 450.003 84.166 446.003 84.16 442.004
C 84.143 430.67 84.153 419.337 84.136 408.003
C 84.128 402.322 83.34 395.931 84.293 390.333 Z"
opacity="1" fill="rgb(12,24,54)" fill-rule="evenodd" />
<path d="
M 88.698 187.59
C 88.647 187.066 88.316 185.703 88.742 186.012
C 88.967 186.175 89.492 187.884 89.611 188.344
C 90.244 190.797 91.714 193.571 91.952 196.051
C 92.022 196.778 90.358 199.41 89.789 198.664
C 89.511 194.972 89.032 191.284 88.698 187.59 Z"
opacity="1" fill="rgb(40,48,70)" fill-rule="evenodd" />
<path d="
M 91.918 208.581
C 92.471 206.658 93.492 204.484 95.432 203.648
C 97.249 207.414 98.383 211.351 100.515 215.032
C 100.315 215.387 98.642 214.287 98.297 214.091
C 96.202 212.896 92.942 212.42 91.812 210.018
C 91.796 209.513 91.821 209.077 91.918 208.581 Z"
opacity="0.996" fill="rgb(39,66,101)" fill-rule="evenodd" />
<path d="
M 93.758 218.194
C 96.349 219.809 99.135 221.038 101.9 222.33
C 103.168 222.923 104.726 223.326 105.82 224.213
C 107.543 225.609 108.723 228.544 110.054 230.363
C 113.223 234.694 116.639 238.826 120.189 242.848
C 130.546 254.581 142.382 265.158 154.719 274.763
C 162.936 281.16 171.498 287.078 180.092 292.953
C 182.935 294.896 185.757 296.887 188.651 298.752
C 190.124 299.701 191.819 300.534 193.026 301.824
C 194.502 303.402 195.293 305.644 196.357 307.5
C 197.628 309.719 199.448 311.727 200.516 314.043
C 195.036 314.683 188.909 313.048 183.45 312.515
C 177.656 311.948 171.92 310.942 166.174 310.032
C 163.73 309.645 160.592 309.761 158.362 308.623
C 152.193 305.474 146.579 300.379 141.312 295.957
C 125.353 282.557 111.944 263.959 103.347 245.021
C 100.752 239.304 98.523 233.435 96.508 227.492
C 95.537 224.627 94.874 221.638 93.724 218.837
C 93.735 218.623 93.747 218.409 93.758 218.194 Z"
opacity="1" fill="rgb(12,25,56)" fill-rule="evenodd" />
<path d="
M 154.207 127.304
C 154.559 127.755 153.846 128.465 153.618 128.836
C 152.798 130.169 152.074 131.565 151.405 132.981
C 149.367 137.042 147.917 141.562 146.455 145.858
C 138.769 168.44 138.301 193.298 145.107 216.174
C 146.931 222.303 149.106 228.261 151.877 234.03
C 152.744 235.837 153.813 239.333 155.546 240.444
C 151.772 239.159 148.054 237.142 144.415 235.488
C 137.953 232.55 131.47 229.64 124.967 226.794
C 121.184 225.139 117.516 223.259 113.775 221.515
C 112.379 220.865 110.483 220.546 109.291 219.567
C 107.718 218.274 106.814 215.417 105.985 213.605
C 104.354 210.039 102.837 206.428 101.196 202.867
C 100.257 200.829 98.918 198.661 98.581 196.424
C 99.254 194.564 100.822 192.768 101.925 191.124
C 104.024 187.995 106.056 184.819 108.143 181.682
C 117.305 167.907 127.998 154.493 139.353 142.455
C 142.668 138.94 145.9 135.364 149.282 131.908
C 150.779 130.378 152.141 128.078 154.207 127.304 Z"
opacity="1" fill="rgb(105,152,197)" fill-rule="evenodd" />
<path d="
M 104.351 93.954
C 107.226 89.531 110.764 85.431 114.26 81.489
C 137.459 55.33 170.192 40.211 204.354 34.486
C 212.951 33.046 221.532 32.49 230.217 31.929
C 232.473 31.784 234.735 31.823 236.993 31.73
C 238.599 31.664 240.48 31.406 242.015 31.979
C 241.94 33.428 238.642 35.531 237.605 36.523
C 235.512 38.526 233.343 40.461 231.197 42.407
C 230.426 43.106 229.446 44.422 228.433 44.74
C 226.445 45.363 224.114 45.103 222.06 45.46
C 205.976 48.257 190.204 52.431 174.74 57.605
C 167.315 60.089 159.686 62.775 152.634 66.191
C 141.271 71.696 130.161 77.093 119.53 83.964
C 115.924 86.295 112.394 88.676 108.917 91.191
C 107.729 92.05 106.689 93.083 105.626 94.087
C 105.428 94.273 104.674 95.12 104.355 95.017
C 103.966 94.891 104.269 94.15 104.351 93.954 Z"
opacity="1" fill="rgb(12,24,55)" fill-rule="evenodd" />
<path d="
M 116.779 229.382
C 127.913 233.869 138.506 239.79 149.671 244.277
C 154.203 246.098 158.67 248.074 163.191 249.919
C 165.093 250.695 167.798 251.259 169.365 252.6
C 173.209 261.364 176.915 270.168 181.059 278.825
C 182.941 282.756 185.873 286.648 187.322 290.719
C 186.744 290.641 185.961 289.755 185.459 289.392
C 184.302 288.558 183.116 287.742 181.946 286.924
C 177.786 284.015 173.571 281.184 169.412 278.271
C 155.577 268.58 142.501 257.617 130.656 245.57
C 127.865 242.731 125.221 239.799 122.546 236.853
C 120.458 234.553 118.113 232.304 116.681 229.52
C 116.713 229.474 116.746 229.428 116.779 229.382 Z"
opacity="1" fill="rgb(14,26,57)" fill-rule="evenodd" />
<path d="
M 154.207 127.304
C 155.537 124.458 158.945 122.3 161.124 120.126
C 161.551 119.7 162.742 117.88 163.485 118.233
C 163.711 118.341 162.771 119.748 162.683 119.918
C 158.629 126.84 156.323 135.485 154.624 143.267
C 149.862 165.079 150.59 187.187 155.551 208.928
C 157.496 217.453 159.669 226.034 162.521 234.303
C 163.384 236.805 164.203 239.325 165.055 241.828
C 165.338 242.659 166.161 243.963 166.029 244.834
C 162.572 243.613 158.87 242.026 155.546 240.444
C 153.813 239.333 152.744 235.837 151.877 234.03
C 149.106 228.261 146.931 222.303 145.107 216.174
C 138.301 193.298 138.769 168.44 146.455 145.858
C 147.917 141.562 149.367 137.042 151.405 132.981
C 152.074 131.565 152.798 130.169 153.618 128.836
C 153.846 128.465 154.559 127.755 154.207 127.304 Z"
opacity="1" fill="rgb(13,25,57)" fill-rule="evenodd" />
<path d="
M 141.958 391.597
C 142.118 390.394 142.515 389.152 143.154 388.118
C 147.648 380.859 159.129 385.205 158.18 393.482
C 157.228 401.79 145.042 403.35 142.253 395.343
C 141.845 394.171 141.795 392.821 141.958 391.597 Z"
opacity="1" fill="rgb(8,19,50)" fill-rule="evenodd" />
<path d="
M 143.33 407.762
C 146.261 407.77 149.191 407.791 152.122 407.801
C 153.489 407.806 155.11 407.591 156.431 407.929
C 156.158 419.281 156.343 430.652 156.404 442.008
C 156.423 445.675 156.413 449.342 156.4 453.008
C 156.395 454.526 156.747 456.364 156.391 457.829
C 152.154 457.595 147.682 457.531 143.454 457.898
C 142.924 457.023 143.295 455.057 143.284 454.008
C 143.246 450.674 143.276 447.34 143.286 444.006
C 143.32 431.928 143.409 419.839 143.33 407.762 Z"
opacity="1" fill="rgb(11,21,51)" fill-rule="evenodd" />
<path d="
M 157.478 164.118
C 158.025 159.588 158.534 155.147 159.304 150.643
C 159.48 149.614 159.692 148.592 159.876 147.567
C 159.953 147.131 159.702 146.479 160.084 146.257
C 160.405 146.07 160.676 146.706 160.971 146.931
C 163.315 148.631 165.258 151.125 167.393 153.091
C 171.83 157.174 176.58 160.964 180.661 165.414
C 177.511 167.287 174.718 167.73 172.907 171.365
C 168.87 179.468 175.505 187.895 184.115 187.278
C 186.205 187.128 188.177 186.415 189.791 185.053
C 190.593 184.376 191.179 183.372 192.078 182.845
C 194.272 183.794 196.344 184.981 198.593 185.84
C 199.945 186.356 201.503 186.568 202.755 187.295
C 203.706 188.859 204.05 190.722 204.594 192.451
C 205.501 195.337 206.608 198.161 207.589 201.022
C 208.149 202.657 209.278 204.737 208.81 206.486
C 208.376 207.379 207.655 208.174 206.864 208.773
C 205.565 209.26 203.959 208.373 202.614 208.265
C 200.058 208.061 197.493 208.783 195.376 210.225
C 193.825 211.282 192.557 212.678 191.689 214.34
C 190.823 215.998 190.294 217.824 190.251 219.699
C 189.97 232.049 207.473 235.262 212.137 224.122
C 213.105 221.809 212.998 219.31 212.912 216.855
C 213.719 216.245 214.166 219.245 214.39 220.054
C 215.524 224.166 217.152 228.205 218.595 232.216
C 220.954 238.777 223.075 245.422 225.393 251.994
C 226.075 253.928 226.64 255.904 227.336 257.832
C 227.615 258.605 228.413 259.922 228.363 260.699
C 225.049 260.859 221.475 260.179 218.168 259.85
C 207.742 258.814 197.669 256.181 187.724 252.978
C 184.67 251.994 181.653 250.912 178.609 249.899
C 177.043 249.377 174.876 248.926 173.578 247.901
C 172.416 245.873 171.942 243.398 171.113 241.218
C 168.978 235.609 167.199 229.877 165.535 224.117
C 159.969 204.857 155.7 184.277 157.478 164.118 Z"
opacity="1" fill="rgb(11,24,56)" fill-rule="evenodd" />
<path d="
M 160.904 142.151
C 163.475 132.432 167.125 123.629 171.905 114.803
C 173.844 111.222 175.968 106.799 178.893 103.923
C 180.771 102.076 183.408 100.803 185.701 99.549
C 189.59 97.422 193.545 95.488 197.646 93.807
C 221.687 83.954 248.836 83.58 273.719 90.35
C 282.587 92.763 291.119 95.779 299.61 99.299
C 301.833 100.22 304.006 101.244 306.181 102.269
C 307.123 102.712 308.428 102.921 309.142 103.692
C 310.472 109.308 312.679 114.76 314.257 120.316
C 317.109 130.36 319.29 140.456 320.838 150.777
C 321.439 154.782 321.621 158.797 322.029 162.82
C 322.156 164.075 322.796 166.545 322.246 167.674
C 319.88 168.307 317.432 169.727 315.164 170.705
C 311.537 172.268 307.828 173.636 304.201 175.203
C 302.344 176.005 300.445 176.703 298.554 177.417
C 297.751 177.721 297.036 178.243 296.154 178.222
C 295.557 173.11 293.274 168.414 287.379 168.241
C 286.146 168.205 282.935 169.652 282.167 169.099
C 282.017 160.237 280.995 151.207 281.303 142.36
C 283.546 141.747 285.671 140.67 287.302 138.991
C 288.637 137.618 289.617 135.995 290.302 134.21
C 290.873 132.722 291.032 131.076 290.947 129.494
C 290.701 124.943 288.064 120.817 283.927 118.836
C 277.575 115.796 268.859 118.738 266.358 125.495
C 265.53 127.734 265.44 130.28 265.852 132.616
C 266.02 133.568 266.587 134.469 266.609 135.432
C 257.596 139.58 248.31 143.397 238.984 146.798
C 236.831 147.584 234.615 148.442 232.561 149.462
C 231.635 149.922 230.283 150.853 229.235 150.855
C 227.828 149.805 226.883 147.65 225.743 146.285
C 222.091 141.911 218.626 137.374 215.173 132.841
C 213.919 131.195 211.024 128.614 210.665 126.609
C 211.775 124.729 212.81 123.244 212.92 120.989
C 212.998 119.38 212.721 117.738 212.062 116.264
C 211.478 114.954 210.548 113.727 209.455 112.798
C 200.47 105.161 187.649 117.674 195.066 126.839
C 196.962 129.181 199.016 129.089 201.346 130.459
C 200.804 140.945 202.31 151.727 201.128 162.161
C 200.563 162.936 198.942 163.248 198.067 163.568
C 195.333 164.567 191.934 166.693 189.025 166.809
C 188.001 166.589 187.136 165.668 186.317 165.057
C 184.309 163.557 182.348 162 180.477 160.33
C 173.908 154.469 167.524 148.404 160.985 142.512
C 160.958 142.392 160.931 142.272 160.904 142.151 Z"
opacity="1" fill="rgb(12,25,58)" fill-rule="evenodd" />
<path d="
M 166.878 407.806
C 169.209 407.728 171.536 407.925 173.863 407.891
C 173.635 403.466 174.266 398.983 174.028 394.537
C 174.977 394.151 176.234 394.38 177.246 394.396
C 179.64 394.433 182.033 394.369 184.427 394.364
C 185.268 394.362 187.038 394.057 187.677 394.636
C 187.855 398.916 188.021 403.475 187.686 407.748
C 188.424 408.07 189.68 407.764 190.499 407.766
C 193.151 407.771 196.417 407.239 198.991 407.866
C 198.565 411.545 198.58 415.731 198.905 419.42
C 196.481 419.269 194.01 419.383 191.582 419.39
C 190.424 419.394 188.889 419.185 187.827 419.688
C 187.734 426.021 187.725 432.365 187.753 438.699
C 187.765 441.347 187.612 444.59 190.22 446.15
C 191.63 446.993 193.659 446.776 195.133 446.24
C 195.647 446.053 196.787 445.3 197.31 445.367
C 198.237 447.848 198.8 450.441 199.784 452.922
C 200.079 453.669 201.019 454.962 200.819 455.783
C 198.209 457.556 195.763 458.594 192.611 459.044
C 190.166 459.393 187.769 459.227 185.392 458.553
C 183.958 458.147 182.567 457.602 181.299 456.813
C 171.682 450.832 174.271 437.095 174.263 427.506
C 174.261 425.538 174.217 423.566 174.262 421.599
C 174.278 420.863 174.447 419.92 174.164 419.229
C 171.677 419.335 169.181 419.165 166.692 419.225
C 166.729 416.644 166.639 414.056 166.575 411.476
C 166.547 410.34 166.24 408.741 166.878 407.806 Z"
opacity="1" fill="rgb(10,22,54)" fill-rule="evenodd" />
<path d="
M 177.096 256.104
C 182.234 257.651 187.202 260.327 192.159 262.405
C 200.345 265.837 208.565 269.184 216.717 272.696
C 229.517 278.21 242.822 282.626 255.479 288.473
C 254.542 289.802 252.448 291.737 251.105 292.65
C 250.003 293.171 248.65 293.145 247.461 293.351
C 244.865 293.801 242.284 294.343 239.692 294.824
C 231.196 296.401 222.579 297.923 213.993 298.886
C 211.158 299.204 208.323 299.568 205.491 299.909
C 204.099 300.077 202.539 300.606 201.152 300.313
C 196.532 296.992 193.931 291.028 191.367 286.115
C 186.253 276.316 181.231 266.355 177.096 256.104 Z"
opacity="1" fill="rgb(103,150,193)" fill-rule="evenodd" />
<path d="
M 177.109 317.951
C 178.224 316.859 182.032 318.241 183.516 318.387
C 188.514 318.879 193.508 319.498 198.525 319.794
C 200.193 319.893 203.667 319.497 205.025 320.363
C 206.752 323.352 208.841 326.378 211.029 329.042
C 210.355 329.288 209.323 328.698 208.653 328.545
C 206.477 328.046 204.288 327.443 202.145 326.816
C 196.17 325.067 190.377 322.997 184.529 320.88
C 182.079 319.993 179.367 319.237 177.109 317.951 Z"
opacity="1" fill="rgb(15,25,47)" fill-rule="evenodd" />
<path d="
M 192.465 88.969
C 201.733 79.734 210.743 70.204 220.072 61.024
C 222.693 58.445 225.359 55.917 227.994 53.353
C 228.997 52.378 229.953 50.856 231.123 50.112
C 232.03 49.535 233.686 49.803 234.72 49.72
C 237.107 49.528 239.463 49.106 241.839 48.824
C 249.287 47.937 256.749 47.175 264.237 46.751
C 267.09 46.589 270.258 45.893 273.093 46.295
C 275.697 47.591 278.158 50.575 280.324 52.539
C 283.165 55.115 286.862 57.23 289.269 60.222
C 291.089 62.484 292.278 65.429 293.538 68.028
C 295.702 72.489 297.819 76.979 299.849 81.504
C 301.219 84.556 302.558 87.621 303.925 90.673
C 304.562 92.094 305.743 93.907 305.949 95.424
C 302.737 94.088 299.661 92.41 296.424 91.111
C 282.211 85.409 266.808 81.52 251.546 80.187
C 245.028 79.617 238.156 79.203 231.634 79.962
C 222.513 81.023 213.909 82.421 205.022 84.83
C 202.031 85.64 199.217 86.954 196.264 87.839
C 195.562 88.049 192.194 89.704 192.465 88.969 Z"
opacity="1" fill="rgb(109,156,199)" fill-rule="evenodd" />
<path d="
M 193.029 169.388
C 195.754 168.03 199.002 167.626 201.659 166.163
C 201.75 168.641 202.428 172.648 201.433 174.925
C 197.303 174.949 194.854 172.938 192.335 169.865
C 192.566 169.706 192.798 169.547 193.029 169.388 Z"
opacity="1" fill="rgb(11,20,46)" fill-rule="evenodd" />
<path d="
M 194.012 177.39
C 194.089 177.314 194.166 177.237 194.243 177.16
C 196.145 177.413 199.319 178.45 200.703 179.811
C 201.223 180.647 201.471 181.903 201.392 182.883
C 199.427 182.563 197.216 181.457 195.452 180.537
C 194.877 180.237 193.694 179.877 193.54 179.16
C 193.423 178.617 193.817 177.852 194.012 177.39 Z"
opacity="1" fill="rgb(16,18,36)" fill-rule="evenodd" />
<path d="
M 204.999 135.616
C 205.222 133.92 205.073 132.203 205.225 130.502
C 205.895 129.741 206.887 129.369 207.903 129.451
C 212.71 134.786 217 140.784 221.321 146.518
C 222.332 147.86 223.413 149.149 224.43 150.488
C 224.808 150.984 225.634 151.685 225.485 152.305
C 220.183 154.156 215.125 156.805 209.837 158.723
C 208.706 159.133 205.773 161.155 204.695 160.639
C 205.649 152.391 204.432 143.899 204.999 135.616 Z"
opacity="1" fill="rgb(15,24,54)" fill-rule="evenodd" />
<path d="
M 204.873 164.891
C 206.698 163.438 209.522 162.744 211.665 161.826
C 217.004 159.538 222.565 156.938 228.108 155.22
C 229.248 155.577 230.457 158.154 231.222 159.167
C 233.933 162.754 237.685 166.245 239.841 170.176
C 239.526 171.526 237.217 173.323 236.181 174.199
C 233.817 175.221 229.71 174.473 227.157 174.477
C 222.001 174.485 216.847 174.528 211.695 174.58
C 209.627 174.601 206.937 175.085 204.941 174.607
C 205.328 171.459 204.889 168.066 204.873 164.891 Z"
opacity="1" fill="rgb(13,26,55)" fill-rule="evenodd" />
<path d="
M 204.716 178.27
C 211.305 178.297 217.905 178.064 224.501 178.103
C 227.328 178.12 230.443 177.794 233.223 178.242
C 233.407 178.832 230.895 181.161 230.409 181.711
C 227.553 184.946 224.822 189.217 221.408 191.855
C 219.606 192.289 216.484 189.913 214.882 189.152
C 213.294 188.398 211.688 187.559 210.028 186.973
C 208.85 186.558 207.209 186.171 206.33 185.245
C 204.959 183.802 204.713 180.181 204.716 178.27 Z"
opacity="1" fill="rgb(14,23,51)" fill-rule="evenodd" />
<path d="
M 205.775 309.655
C 207.383 310.782 208.867 312.03 210.517 313.132
C 211.239 313.615 212.608 314.162 212.975 314.954
C 212.05 315.553 210.087 315.117 209.051 314.907
C 207.398 314.263 206.322 311.516 205.625 310.042
C 205.675 309.913 205.725 309.784 205.775 309.655 Z"
opacity="1" fill="rgb(42,36,62)" fill-rule="evenodd" />
<path d="
M 207.941 190.546
C 208.676 189.742 209.857 190.626 210.755 191.093
C 213.371 192.456 215.935 193.748 218.733 194.69
C 218.445 195.667 217.419 196.479 216.749 197.218
C 215.288 198.829 213.885 201.829 212.017 202.877
C 211.284 201.953 211.109 200.353 210.707 199.233
C 209.723 196.486 208.051 193.508 207.941 190.546 Z"
opacity="1" fill="rgb(15,20,42)" fill-rule="evenodd" />
<path d="
M 209.956 212.126
C 210.236 211.05 210.399 210.438 211.619 210.401
C 212.011 211.843 211.743 212.672 210.119 212.587
C 210.065 212.433 210.01 212.28 209.956 212.126 Z"
opacity="1" fill="rgb(47,68,63)" fill-rule="evenodd" />
<path d="
M 210.189 305.344
C 217.685 304.924 225.31 303.315 232.695 301.986
C 234.663 301.632 236.672 301.383 238.616 300.92
C 239.721 300.657 241.386 300.12 242.508 300.349
C 241.932 301.844 239.847 303.063 238.682 304.145
C 235.727 306.892 232.938 309.811 230.007 312.583
C 228.906 313.624 227.536 315.205 225.937 315.273
C 222.289 315.427 219.087 312.011 216.312 310.028
C 214.719 308.889 213.037 307.829 211.547 306.557
C 211.047 306.13 210.408 305.984 210.189 305.344 Z"
opacity="1" fill="rgb(16,26,58)" fill-rule="evenodd" />
<path d="
M 212.742 320.386
C 215.517 320.378 218.273 320.243 221.051 320.406
C 220.41 322.327 217.523 324.455 215.942 325.636
C 214.84 324.664 213.936 322.959 213.257 321.665
C 213.031 321.235 212.502 320.853 212.742 320.386 Z"
opacity="1" fill="rgb(18,27,50)" fill-rule="evenodd" />
<path d="
M 213.422 207.057
C 213.951 205.691 215.289 204.65 216.253 203.576
C 218.26 201.342 220.188 199.051 222.108 196.745
C 223.127 196.801 224.295 197.755 225.213 198.222
C 227.54 199.405 229.993 200.332 232.382 201.371
C 233.437 201.83 235.316 202.123 236.109 202.924
C 232.059 205.577 226.486 207.109 221.964 208.832
C 219.917 209.611 217.537 211.123 215.334 211.27
C 214.465 210.077 213.569 208.554 213.422 207.057 Z"
opacity="1" fill="rgb(16,24,51)" fill-rule="evenodd" />
<path d="
M 213.494 396.606
C 213.576 395.977 213.556 396.358 213.456 395.463
C 215.373 395.132 217.543 395.268 219.488 395.354
C 219.89 396.818 219.377 398.963 219.374 400.497
C 219.366 404.497 219.374 408.497 219.379 412.497
C 219.395 425.531 219.308 438.568 219.374 451.6
C 222.644 452.196 226.661 451.591 230.008 451.599
C 238.425 451.62 246.85 451.441 255.264 451.583
C 255.46 453.338 255.071 455.289 255.475 456.989
C 250.575 457.737 244.97 456.923 240.006 456.88
C 231.215 456.806 222.392 457.09 213.607 456.878
C 212.58 450.026 213.444 442.436 213.406 435.499
C 213.335 422.563 212.974 409.533 213.494 396.606 Z"
opacity="1" fill="rgb(9,25,57)" fill-rule="evenodd" />
<path d="
M 216.384 215.042
C 222.281 212.394 228.327 210.119 234.319 207.7
C 236.012 207.017 238.848 204.863 240.686 205.109
C 242.41 205.339 244.68 207.242 246.291 207.983
C 250.907 210.106 255.539 212.033 259.98 214.522
C 253.874 224.848 248.03 235.546 241.416 245.567
C 239.292 248.785 237.221 252.048 235.198 255.331
C 234.402 256.623 233.315 258.001 232.818 259.431
C 232.757 259.608 232.433 260.715 231.98 260.28
C 231.167 259.497 230.804 257.575 230.415 256.496
C 229.214 253.167 228.142 249.775 227.041 246.412
C 225.483 241.652 223.576 237.012 221.988 232.263
C 220.115 226.662 218.508 220.895 216.202 215.456
C 216.263 215.318 216.323 215.18 216.384 215.042 Z"
opacity="1" fill="rgb(8,20,54)" fill-rule="evenodd" />
<path d="
M 216.326 265.917
C 218.855 265.223 222.412 266.357 225.031 266.569
C 230.104 266.978 235.396 266.886 240.472 266.55
C 257.964 265.391 274.194 260.822 289.77 252.908
C 290.175 252.56 289.226 253.843 288.849 254.221
C 288.13 254.941 287.357 255.601 286.627 256.31
C 284.355 258.515 282.285 260.994 280.088 263.28
C 273.436 270.202 266.853 277.277 259.903 283.902
C 257.845 283.586 255.804 282.35 253.911 281.529
C 251.189 280.349 248.403 279.277 245.649 278.172
C 239.053 275.524 232.468 272.853 225.924 270.078
C 222.876 268.786 219.05 267.735 216.326 265.917 Z"
opacity="1" fill="rgb(105,150,194)" fill-rule="evenodd" />
<path d="
M 219.225 330.602
C 220.553 329.077 222.194 327.854 223.639 326.443
C 224.38 325.72 225.083 324.761 226.067 324.421
C 229.085 325.979 231.704 328.377 234.473 330.323
C 235.131 330.785 237.266 331.56 237.485 332.303
C 231.609 332.337 225.014 331.621 219.225 330.602 Z"
opacity="1" fill="rgb(34,57,93)" fill-rule="evenodd" />
<path d="
M 224.7 193.632
C 226.538 191.052 229.187 188.869 231.258 186.441
C 233.505 183.806 235.448 180.693 237.9 178.269
C 240.492 177.867 243.48 178.119 246.106 178.195
C 249.258 181.784 252.029 185.875 254.97 189.651
C 255.727 190.624 258.102 192.672 258.275 193.846
C 254.462 195.851 250.1 197.337 246.076 198.882
C 244.472 199.497 242.32 200.836 240.618 200.945
C 238.904 201.055 236.864 199.374 235.397 198.613
C 231.889 196.792 228.05 195.777 224.7 193.632 Z"
opacity="1" fill="rgb(16,28,58)" fill-rule="evenodd" />
<path d="
M 230.831 320.371
C 233.161 319.537 236.717 319.931 239.221 319.759
C 244.903 319.37 250.682 318.838 256.315 317.995
C 274.066 315.338 291.704 312.283 308.662 306.16
C 318.129 302.742 327.378 298.855 336.345 294.27
C 339.367 292.725 342.335 291.075 345.327 289.473
C 346.456 288.87 347.484 288.104 348.64 287.556
C 348.651 287.551 349.733 286.995 349.716 287.4
C 349.701 287.753 348.731 288.373 348.474 288.605
C 347.075 289.871 345.518 290.926 344.146 292.22
C 338.028 297.986 331.48 303.532 324.457 308.166
C 307.367 319.443 286.737 328.198 266.303 330.752
C 262.175 331.268 258.084 331.877 253.939 332.296
C 252.326 332.459 250.207 333.101 248.614 332.727
C 246.685 332.273 244.514 329.928 242.87 328.815
C 238.914 326.139 234.202 323.781 230.831 320.371 Z"
opacity="1" fill="rgb(46,77,127)" fill-rule="evenodd" />
<path d="
M 231.714 153.958
C 240.687 150.234 249.676 146.554 258.711 142.957
C 260.778 142.134 262.783 141.082 264.882 140.35
C 265.227 140.23 266.717 139.505 267.042 139.823
C 267.47 140.24 265.109 142.434 264.796 142.8
C 262.12 145.93 259.148 148.852 256.378 151.905
C 252.738 155.916 249.17 160 245.49 163.975
C 244.679 164.851 243.842 165.733 243.087 166.658
C 242.894 166.895 242.542 167.569 242.207 167.469
C 239.936 164.382 237.515 161.349 235.115 158.358
C 233.973 156.934 232.568 155.575 231.714 153.958 Z"
opacity="1" fill="rgb(15,26,55)" fill-rule="evenodd" />
<path d="
M 236.354 259.99
C 245.217 245.481 253.568 230.463 262.93 216.277
C 263.768 215.774 266.363 217.35 267.219 217.833
C 267.986 221.351 266.726 224.253 268.86 227.602
C 270.008 229.403 271.598 230.981 273.443 232.063
C 274.984 232.967 276.619 233.339 278.375 233.585
C 280.05 233.819 281.751 233.713 283.391 233.303
C 296.057 230.142 295.335 211.43 283.04 208.299
C 279.901 207.499 277.596 208.555 274.61 209.124
C 273.578 207.914 272.7 206.582 271.648 205.383
C 271.138 204.802 270.364 204.29 270.214 203.542
C 272.202 200.696 273.944 197.746 275.624 194.704
C 276.68 192.79 277.703 190.553 279.377 189.096
C 282.753 186.156 287.463 187.334 291.3 185.459
C 293.097 184.581 294.502 183.078 296.32 182.211
C 300.509 180.21 304.926 178.612 309.204 176.804
C 313.446 175.012 317.815 172.947 322.273 171.771
C 322.727 173.61 321.912 176.567 321.773 178.491
C 321.315 184.867 320.331 191.155 319.028 197.409
C 316.826 207.984 313.085 218.084 307.928 227.568
C 305.846 231.395 303.588 235.516 300.598 238.722
C 296.811 242.783 290.825 245.761 285.952 248.315
C 275.382 253.856 264.042 257.547 252.236 259.326
C 246.971 260.119 241.431 260.97 236.092 260.676
C 236.179 260.447 236.266 260.219 236.354 259.99 Z"
opacity="1" fill="rgb(107,153,197)" fill-rule="evenodd" />
<path d="
M 237.312 313.472
C 241.061 310.027 244.662 306.38 248.38 302.883
C 249.879 301.473 251.24 299.492 252.953 298.355
C 255.036 296.972 258.956 296.651 261.401 296.09
C 266.73 294.867 272.034 293.278 277.245 291.627
C 294.993 286.004 312.439 279.763 329.275 271.751
C 342.013 265.69 354.261 258.603 366.134 251.002
C 370.242 248.372 374.19 245.518 378.23 242.789
C 379.555 241.894 380.857 240.255 382.376 239.785
C 381.867 241.953 380.035 244.241 378.938 246.198
C 376.544 250.466 374.307 254.771 371.617 258.869
C 369.301 262.396 366.871 266.47 363.883 269.461
C 356.934 276.418 347.459 281.578 338.921 286.296
C 317.574 298.091 294.131 305.983 270.068 309.944
C 263.056 311.098 256.026 311.981 248.989 312.919
C 245.308 313.41 240.987 314.374 237.286 314.011
C 237.295 313.831 237.304 313.652 237.312 313.472 Z"
opacity="1" fill="rgb(12,26,58)" fill-rule="evenodd" />
<path d="
M 239.182 42.663
C 240.918 40.56 243.128 38.83 245.14 36.996
C 247.776 34.592 250.286 32.048 253.061 29.805
C 254.314 29.702 255.984 31.535 256.913 32.338
C 260.008 35.011 263.1 37.728 266.129 40.47
C 265.659 40.926 264.937 40.781 264.32 40.836
C 262.676 40.98 261.062 41.17 259.408 41.235
C 254.706 41.419 250.021 41.942 245.332 42.302
C 243.343 42.455 241.152 43.146 239.182 42.663 Z"
opacity="1" fill="rgb(11,23,53)" fill-rule="evenodd" />
<path d="
M 241.021 174.057
C 241.314 173.648 241.489 173.544 241.962 173.38
C 242.59 173.446 242.83 173.897 242.995 174.482
C 242.328 174.916 241.564 174.722 240.828 174.642
C 240.892 174.447 240.957 174.252 241.021 174.057 Z"
opacity="1" fill="rgb(93,107,108)" fill-rule="evenodd" />
<path d="
M 244.757 170.574
C 245.848 168.171 248.71 165.752 250.504 163.781
C 254.618 159.263 258.577 154.598 262.744 150.127
C 265.557 147.253 268.011 143.831 270.915 141.102
C 272.444 141.378 273.851 142.137 275.386 142.455
C 276.062 142.595 277.258 142.568 277.785 142.959
C 277.329 150.819 278.453 158.841 278.697 166.695
C 278.748 168.33 279.54 173.327 277.706 174.227
C 274.996 174.787 272.258 174.602 269.497 174.601
C 265.073 174.6 260.649 174.604 256.225 174.57
C 254.274 174.555 252.338 174.557 250.388 174.483
C 249.577 174.452 248.381 174.642 247.631 174.269
C 246.469 173.692 245.362 171.694 244.757 170.574 Z"
opacity="1" fill="rgb(12,25,57)" fill-rule="evenodd" />
<path d="
M 245.336 203.051
C 250.305 200.94 255.397 198.514 260.526 196.83
C 261.446 198.14 262.184 199.559 263.191 200.833
C 264.081 201.957 265.467 203.115 266.062 204.409
C 265.725 206.471 263.087 209.627 261.872 211.378
C 259.758 210.714 257.795 209.317 255.81 208.345
C 252.313 206.634 248.715 204.948 245.162 203.39
C 245.22 203.277 245.278 203.164 245.336 203.051 Z"
opacity="1" fill="rgb(16,27,55)" fill-rule="evenodd" />
<path d="
M 250.555 178.231
C 256.535 178.213 262.523 178.181 268.507 178.208
C 271.397 178.22 274.928 177.744 277.692 178.675
C 277.977 179.758 277.885 180.983 278.584 181.914
C 279.001 182.471 280.356 183.193 280.358 183.906
C 279.69 184.982 278.06 185.853 276.966 186.446
C 273.72 188.206 269.88 189.273 266.44 190.629
C 265.219 191.11 263.084 192.545 261.794 192.235
C 257.692 188.114 253.987 182.911 250.555 178.231 Z"
opacity="1" fill="rgb(17,27,55)" fill-rule="evenodd" />
<path d="
M 252.051 21.555
C 255.766 22.415 259.472 23.562 263.166 24.597
C 264.826 25.062 267.161 25.241 268.532 26.352
C 269.703 27.301 270.385 28.939 271.208 30.172
C 272.94 32.765 274.616 35.392 276.394 37.953
C 277.858 40.063 279.094 42.321 280.656 44.364
C 280.928 44.72 282.198 45.882 281.959 46.302
C 280.417 45.475 279.378 43.747 278.002 42.678
C 272.749 38.594 267.815 34.089 262.59 29.956
C 260.178 28.049 258.111 25.664 255.668 23.817
C 255.11 23.395 251.488 21.961 252.051 21.555 Z"
opacity="1" fill="rgb(18,29,55)" fill-rule="evenodd" />
<path d="
M 260.484 432.103
C 261.454 426.866 263.102 421.855 267.025 418.023
C 274.723 410.505 288.42 410.292 296.101 417.94
C 299.383 421.207 301.599 425.957 302.161 430.537
C 302.438 432.792 302.181 435.043 302.29 437.289
C 293.207 437.1 284.092 437.282 275.006 437.324
C 272.869 437.334 270.734 437.409 268.597 437.422
C 267.898 437.426 266.604 437.2 266.205 437.834
C 266.962 441.786 268.41 445.33 271.227 448.28
C 278.266 455.654 289.666 453.389 296.058 446.694
C 297.16 446.941 298.11 448.268 298.954 448.992
C 299.155 449.164 299.841 449.528 299.845 449.779
C 293.711 459.887 277.478 460.047 268.872 453.509
C 262.259 448.487 259.604 440.155 260.484 432.103 Z
M 266.04 432.186
C 266.035 432.337 266.03 432.487 266.025 432.638
C 276.217 432.336 286.551 432.579 296.75 432.726
C 295.836 428.987 295.325 425.257 292.684 422.24
C 287.25 416.035 277.036 415.796 271.206 421.553
C 268.081 424.638 267.204 428.139 266.04 432.186 Z"
opacity="1" fill="rgb(8,21,53)" fill-rule="evenodd" />
<path d="
M 263.96 288.65
C 289.213 262.225 313.677 235.288 336.369 206.601
C 344.286 196.592 351.497 185.969 358.783 175.499
C 360.874 172.493 362.989 169.482 364.971 166.403
C 366.336 164.283 367.615 161.845 369.459 160.1
C 372.154 165.279 374.067 170.93 376.126 176.377
C 380.216 187.199 383.284 198.521 385.473 209.881
C 386.227 213.794 386.925 217.714 387.65 221.633
C 387.919 223.092 388.838 225.281 388.546 226.71
C 387.005 228.513 384.723 229.747 382.961 231.339
C 377.03 236.7 370.162 241.286 363.446 245.602
C 342.089 259.324 319.579 270.9 295.578 279.261
C 288.43 281.751 281.302 284.335 274.014 286.402
C 270.749 287.328 267.147 288.888 263.767 289.118
C 263.831 288.962 263.896 288.806 263.96 288.65 Z"
opacity="1" fill="rgb(43,75,126)" fill-rule="evenodd" />
<path d="
M 264.111 195.438
C 267.048 194.215 270.004 192.354 273.173 191.847
C 273.414 192.499 272.429 193.675 272.11 194.236
C 270.953 196.261 269.616 199.628 267.933 201.179
C 266.663 199.291 265.15 197.463 264.111 195.438 Z"
opacity="1" fill="rgb(17,28,51)" fill-rule="evenodd" />
<path d="
M 265.378 212.078
C 266.334 210.362 267.101 208.533 268.345 206.998
C 269.209 208.396 270.837 209.552 271.245 211.206
C 271.009 212.343 269.341 213.71 268.41 214.315
C 267.213 214.387 266.135 213.325 265.324 212.574
C 265.342 212.408 265.36 212.243 265.378 212.078 Z"
opacity="1" fill="rgb(114,149,175)" fill-rule="evenodd" />
<path d="
M 269.432 128.071
C 270.704 123.612 274.863 120.711 279.489 121.217
C 284.71 121.787 289.002 127.384 287.197 132.542
C 285.716 136.774 281.131 139.662 276.641 139.03
C 271.784 138.346 268.077 132.824 269.432 128.071 Z"
opacity="1" fill="rgb(13,25,55)" fill-rule="evenodd" />
<path d="
M 270.894 218.565
C 271.963 214.824 275.398 211.437 279.426 211.316
C 285.466 211.135 290.647 217.355 288.921 223.243
C 286.226 232.433 271.796 231.976 270.708 222.012
C 270.584 220.886 270.581 219.662 270.894 218.565 Z"
opacity="1" fill="rgb(94,139,185)" fill-rule="evenodd" />
<path d="
M 277.811 29.213
C 281.818 31.416 286.346 32.644 290.528 34.511
C 298.879 38.239 306.947 42.988 314.526 48.09
C 337.028 63.236 354.699 85.04 366.779 109.164
C 371.198 117.988 374.077 127.209 377.761 136.3
C 377.108 136.415 376.144 135.463 375.59 135.15
C 373.557 134 371.646 132.655 369.652 131.441
C 366.837 129.726 364.097 127.879 361.236 126.24
C 359.66 125.338 357.785 124.659 356.381 123.497
C 354.831 122.213 353.767 120.155 352.637 118.509
C 351.225 116.453 349.615 114.533 348.09 112.562
C 337.74 99.182 326.168 86.255 313.775 74.722
C 309.923 71.138 306.225 67.393 302.219 63.977
C 299.997 62.082 297.238 60.206 295.41 57.923
C 292.515 54.308 290.601 49.629 288.18 45.67
C 284.832 40.194 280.727 34.908 277.811 29.213 Z"
opacity="1" fill="rgb(14,26,57)" fill-rule="evenodd" />
<path d="
M 302.365 72.291
C 304.933 74.221 306.979 76.903 309.361 79.064
C 318.024 86.92 326.126 95.521 333.753 104.383
C 336.091 107.099 338.356 109.879 340.77 112.528
C 341.255 113.06 343.05 114.591 342.924 115.266
C 336.275 111.021 329.203 107.418 322.31 103.58
C 319.882 102.227 316.108 101.265 314.098 99.398
C 312.253 97.685 311.574 93.512 310.598 91.214
C 307.922 84.911 304.639 78.772 302.084 72.464
C 302.177 72.406 302.271 72.349 302.365 72.291 Z"
opacity="1" fill="rgb(17,26,55)" fill-rule="evenodd" />
<path d="
M 313.515 414.098
C 313.518 413.92 313.52 413.742 313.523 413.564
C 314.923 412.573 317.659 413.234 319.323 413.14
C 319.237 415.331 319.109 417.627 319.23 419.817
C 319.696 419.86 320.287 418.618 320.546 418.3
C 321.676 416.909 323.035 415.778 324.546 414.823
C 328.387 412.394 333.462 411.786 337.897 412.475
C 339.626 412.743 341.36 413.332 342.914 414.131
C 353.986 419.829 351.353 433.856 351.392 444.135
C 351.403 447.257 351.435 450.381 351.411 453.503
C 351.404 454.441 351.802 456.441 351.414 457.215
C 349.532 457.249 347.595 456.974 345.726 457.121
C 345.376 449.947 345.657 442.687 345.667 435.503
C 345.672 431.36 346.083 426.885 344.012 423.129
C 338.772 413.63 323.217 416.97 319.961 426.514
C 318.987 429.368 319.287 432.706 319.286 435.673
C 319.283 440.615 319.307 445.557 319.318 450.498
C 319.322 452.654 319.628 455.059 319.364 457.187
C 317.502 457.295 315.49 457.22 313.645 456.942
C 313.152 452.68 313.726 448.279 313.545 443.992
C 313.128 434.125 313.071 423.963 313.515 414.098 Z"
opacity="1" fill="rgb(11,23,54)" fill-rule="evenodd" />
<path d="
M 317.114 108.013
C 317.427 108.138 317.739 108.262 318.052 108.386
C 326.178 112.754 334.422 116.882 342.317 121.684
C 345.15 123.407 348.735 124.734 351.18 126.984
C 352.778 128.453 353.799 130.633 354.903 132.473
C 356.757 135.564 358.605 138.651 360.371 141.794
C 361.785 144.31 363.048 146.912 364.38 149.473
C 364.955 150.579 366.07 151.822 366.256 153.051
C 365.823 154.624 364.498 156.014 363.644 157.391
C 361.863 160.262 359.971 163.062 358.119 165.886
C 350.729 177.156 342.735 188.047 334.729 198.879
C 330.978 203.954 327.065 208.899 323.191 213.877
C 321.921 215.508 320.548 217.083 319.484 218.862
C 319.237 219.274 317.724 221.42 317.805 221.108
C 319.955 216.712 321.162 211.743 322.577 207.061
C 328.985 185.858 329.52 162.963 325.518 141.232
C 324.178 133.959 322.437 126.774 320.454 119.652
C 319.386 115.812 317.692 111.948 317.114 108.013 Z"
opacity="1" fill="rgb(111,157,200)" fill-rule="evenodd" />
<path d="
M 361.835 451.059
C 362.792 449.954 363.662 447.862 364.968 447.197
C 370.556 451.634 377.919 453.879 385.033 452.634
C 388.453 452.035 392.359 449.84 392.568 445.963
C 392.811 441.45 388.427 439.329 384.644 438.435
C 377.963 436.857 366.588 436.531 364.208 428.535
C 362.268 422.014 366.439 415.472 372.706 413.529
C 380.236 411.194 390.968 412.603 397.077 417.814
C 395.94 419.116 395.177 420.823 394.167 422.23
C 393.224 421.035 391.588 420.355 390.251 419.705
C 385.838 417.561 379.987 416.671 375.206 418.053
C 371.27 419.19 368.336 422.954 370.021 427.127
C 371.329 430.368 375.543 431.028 378.519 431.703
C 384.588 433.079 392.625 433.52 396.541 439.087
C 401.693 446.41 395.747 454.882 388.258 457.019
C 381.409 458.974 373.726 457.961 367.342 454.953
C 365.34 454.01 363.702 452.61 361.791 451.579
C 361.806 451.406 361.821 451.232 361.835 451.059 Z"
opacity="1" fill="rgb(8,19,51)" fill-rule="evenodd" />
<path d="
M 362.589 134.023
C 366.248 136.213 369.678 139.195 373.711 140.725
C 373.503 142.378 371.668 144.353 370.781 145.731
C 370.466 146.22 370.104 147.063 369.586 147.353
C 368.378 145.614 367.588 143.317 366.596 141.416
C 365.312 138.957 363.591 136.592 362.589 134.023 Z"
opacity="1" fill="rgb(56,84,119)" fill-rule="evenodd" />
<path d="
M 372.915 153.585
C 374.62 149.915 377.506 146.771 379.277 143.154
C 379.949 143.653 379.869 144.837 379.961 145.59
C 380.223 147.724 380.632 149.867 381.001 151.986
C 382.016 157.812 382.306 163.644 382.955 169.501
C 383.216 171.856 383.259 174.196 383.397 176.557
C 383.468 177.772 383.783 178.968 383.485 180.169
C 382.194 177.085 381.453 173.797 380.188 170.698
C 377.883 165.05 375.31 159.533 372.9 153.943
C 372.905 153.824 372.91 153.704 372.915 153.585 Z"
opacity="1" fill="rgb(19,28,59)" fill-rule="evenodd" />

</svg>